Coordinates
version=1
nRows=41
nColumns=38
inDegrees=no

Units are S.I. units (second, meters, Newtons, ...)
If the header above contains a line with 'inDegrees', this indicates whether rotational values are in degrees (yes) or radians (no).

endheader
time	pelvis_tilt	pelvis_list	pelvis_rotation	pelvis_tx	pelvis_ty	pelvis_tz	hip_flexion_r	hip_adduction_r	hip_rotation_r	knee_angle_r	ankle_angle_r	subtalar_angle_r	mtp_angle_r	hip_flexion_l	hip_adduction_l	hip_rotation_l	knee_angle_l	ankle_angle_l	subtalar_angle_l	mtp_angle_l	lumbar_extension	lumbar_bending	lumbar_rotation	arm_flex_r	arm_add_r	arm_rot_r	elbow_flex_r	pro_sup_r	wrist_flex_r	wrist_dev_r	arm_flex_l	arm_add_l	arm_rot_l	elbow_flex_l	pro_sup_l	wrist_flex_l	wrist_dev_l
1.87	-1.93754	1.49658	-2.89615	0.730449	0.830695	0.983306	-0.15995	-0.171282	-0.183999	0.49713	0.248158	0	0	0.365119	0.00833505	-0.266371	0.317041	-0.00440981	0	0	-0.220683	-0.0612976	0.113499	0.0116896	-0.178103	-0.091756	0.303956	1.47813	0	0	0.0126424	-0.276284	0.49852	0.380363	1.13801	0	0
1.88	-1.92544	1.48888	-2.90645	0.728133	0.840878	0.983503	-0.147246	-0.185855	-0.174699	0.539489	0.229688	0	0	0.369925	0.01556	-0.26561	0.347448	0.00269003	0	0	-0.219898	-0.0704487	0.110787	0.00404707	-0.176749	-0.097737	0.309558	1.47963	0	0	0.00952658	-0.274342	0.492191	0.378145	1.14135	0	0
1.89	-1.92244	1.48086	-2.90647	0.72585	0.850965	0.98405	-0.132627	-0.200589	-0.167648	0.585368	0.20507	0	0	0.373729	0.0235344	-0.263507	0.377493	0.00851384	0	0	-0.220192	-0.0796471	0.107991	-0.00428379	-0.175581	-0.101465	0.316478	1.4785	0	0	0.00778214	-0.273042	0.488826	0.376655	1.14185	0	0
1.9	-1.91402	1.47377	-2.91153	0.723554	0.860902	0.984614	-0.113898	-0.214802	-0.161213	0.63503	0.17448	0	0	0.375502	0.0315208	-0.261083	0.401081	0.00634976	0	0	-0.219717	-0.087805	0.105889	-0.0125641	-0.175162	-0.103727	0.322939	1.47569	0	0	0.0069296	-0.272052	0.488877	0.375291	1.14141	0	0
1.91	-1.91147	1.46161	-2.90975	0.721269	0.869933	0.985927	-0.09339	-0.233601	-0.153607	0.687147	0.137194	0	0	0.372718	0.0446522	-0.263088	0.416835	-0.00593009	0	0	-0.224357	-0.101535	0.102233	-0.0171242	-0.174019	-0.104105	0.328176	1.47026	0	0	0.0105968	-0.272112	0.492863	0.372178	1.14015	0	0
1.92	-2.05844	1.4655	-2.76128	0.718756	0.8795	0.988573	-0.0875619	-0.236546	-0.162928	0.729527	0.0896956	0	0	0.352186	0.0387169	-0.261829	0.424887	-0.00959815	0	0	-0.240184	-0.0907617	0.105037	-0.0210696	-0.180411	-0.103063	0.332881	1.46651	0	0	0.0146876	-0.26484	0.498179	0.36646	1.13688	0	0
1.93	-1.9966	1.46491	-2.82755	0.716902	0.888585	0.988165	-0.0481232	-0.2449	-0.139378	0.791339	0.0532017	0	0	0.353372	0.0422649	-0.26756	0.434034	-0.00303663	0	0	-0.231638	-0.0945442	0.112405	-0.0259896	-0.181583	-0.1212	0.332592	1.49021	0	0	0.0138746	-0.261805	0.493869	0.363246	1.14771	0	0
1.94	-1.90524	1.47336	-2.92976	0.715457	0.897893	0.986427	0.000800359	-0.241763	-0.10667	0.855481	0.0186246	0	0	0.359983	0.0361267	-0.2716	0.445379	0.0155063	0	0	-0.213268	-0.089251	0.127515	-0.0408721	-0.191866	-0.0886353	0.347553	1.45027	0	0	0.00626601	-0.264807	0.523941	0.375368	1.10975	0	0
1.95	-1.82414	1.46982	-3.01895	0.714042	0.906283	0.985842	0.0454262	-0.248548	-0.07863	0.916426	-0.0162092	0	0	0.360605	0.041882	-0.278441	0.449493	0.0240327	0	0	-0.202967	-0.0958637	0.135756	-0.0446813	-0.194555	-0.0890889	0.349932	1.4529	0	0	0.00360411	-0.263643	0.517669	0.376081	1.11967	0	0
1.96	-1.74927	1.46341	-3.10186	0.71279	0.914361	0.985481	0.0894985	-0.255389	-0.0498764	0.973896	-0.0513087	0	0	0.361243	0.0503225	-0.28478	0.452264	0.0296251	0	0	-0.192966	-0.105115	0.142338	-0.0473118	-0.196169	-0.0879595	0.35303	1.45369	0	0	0.000593986	-0.26402	0.512612	0.378489	1.12741	0	0
1.97	-1.71799	1.4476	-3.13715	0.711415	0.921763	0.986347	0.126632	-0.27078	-0.0253167	1.02544	-0.087041	0	0	0.357137	0.0684028	-0.293976	0.451614	0.0289988	0	0	-0.190418	-0.124264	0.141862	-0.0448012	-0.194452	-0.0872269	0.353723	1.45394	0	0	0.000763842	-0.266777	0.507788	0.381694	1.13334	0	0
1.98	-1.61441	1.43779	3.03684	0.711043	0.930772	0.98406	0.171046	-0.26798	0.0138234	1.07714	-0.108297	0	0	0.365836	0.079901	-0.291546	0.459179	0.0443362	0	0	-0.167097	-0.137025	0.145706	-0.0534068	-0.191859	-0.0860015	0.359991	1.45472	0	0	-0.0107657	-0.274503	0.504932	0.393539	1.13656	0	0
1.99	-1.71862	1.43787	-3.14096	0.708925	0.937826	0.988202	0.181026	-0.27615	0.00760703	1.10916	-0.142227	0	0	0.338943	0.0860962	-0.289968	0.450063	0.0412549	0	0	-0.186803	-0.136421	0.140693	-0.0454768	-0.195109	-0.083548	0.360067	1.45435	0	0	-0.00309158	-0.267337	0.50012	0.386085	1.13783	0	0
2	-1.67674	1.43416	3.10043	0.708271	0.946945	0.987091	0.208415	-0.26768	0.0339024	1.1498	-0.134702	0	0	0.335182	0.0946699	-0.280468	0.451209	0.0558503	0	0	-0.172753	-0.141638	0.13926	-0.0562263	-0.196684	-0.0598507	0.373504	1.4257	0	0	-0.0111506	-0.271773	0.501939	0.391834	1.12606	0	0
2.01	-1.72733	1.43625	-3.1278	0.706763	0.954977	0.989119	0.220077	-0.265077	0.0343753	1.17958	-0.125885	0	0	0.314072	0.0992467	-0.271065	0.442204	0.0610565	0	0	-0.17917	-0.138598	0.133533	-0.0550913	-0.197824	-0.059135	0.374837	1.42471	0	0	-0.00898668	-0.26861	0.503011	0.387656	1.1204	0	0
2.02	-1.76862	1.43909	-3.08017	0.705266	0.962871	0.991085	0.232671	-0.263735	0.0288217	1.20598	-0.113087	0	0	0.293347	0.102833	-0.262016	0.430585	0.0658357	0	0	-0.184043	-0.134246	0.126622	-0.0535061	-0.198604	-0.0583407	0.374774	1.42315	0	0	-0.00678011	-0.266246	0.507152	0.384372	1.11375	0	0
2.03	-1.81512	1.44279	-3.02558	0.703694	0.970647	0.993266	0.242358	-0.259895	0.0223511	1.22615	-0.0991196	0	0	0.271562	0.104724	-0.253982	0.417356	0.0686739	0	0	-0.19037	-0.127919	0.117625	-0.0445567	-0.194528	-0.0940872	0.361241	1.47267	0	0	0.00461456	-0.240805	0.405823	0.338318	1.24271	0	0
2.04	-1.94412	1.4467	-2.88749	0.701506	0.976963	0.997883	0.244153	-0.267616	-0.00634356	1.23908	-0.100095	0	0	0.239908	0.102895	-0.25155	0.401403	0.0629242	0	0	-0.213109	-0.117695	0.108017	-0.0319811	-0.197328	-0.095897	0.353969	1.47403	0	0	0.0168154	-0.233108	0.407817	0.328969	1.23601	0	0
2.05	-1.83722	1.45023	-2.98692	0.700843	0.985365	0.996174	0.273808	-0.254931	0.00652972	1.25965	-0.0777288	0	0	0.244641	0.10576	-0.243366	0.402331	0.077078	0	0	-0.190891	-0.117809	0.102845	-0.0394418	-0.197442	-0.0746046	0.358218	1.44324	0	0	0.00618143	-0.246266	0.450987	0.350529	1.182	0	0
2.06	-1.97345	1.46317	-2.84261	0.698855	0.991874	0.999866	0.276515	-0.254418	-0.0273733	1.2644	-0.0837775	0	0	0.217549	0.0944196	-0.234443	0.390375	0.0775486	0	0	-0.20839	-0.0972168	0.096742	-0.0234158	-0.199417	-0.0983469	0.339943	1.47567	0	0	0.0174496	-0.232544	0.42678	0.333505	1.21201	0	0
2.07	-1.97752	1.46786	-2.8315	0.696774	0.998914	1.00095	0.295882	-0.264114	-0.0289553	1.27058	-0.0722498	0	0	0.2061	0.0952089	-0.22966	0.381727	0.0803536	0	0	-0.207178	-0.0904161	0.0903254	-0.0167506	-0.200959	-0.0969121	0.331821	1.47308	0	0	0.0180855	-0.232982	0.434661	0.338496	1.20455	0	0
2.08	-1.86662	1.45794	-2.93162	0.696912	1.00669	1.00011	0.317818	-0.250101	-0.0165074	1.28174	-0.0653724	0	0	0.201901	0.110207	-0.227676	0.372682	0.0870636	0	0	-0.193463	-0.107103	0.0794137	-0.0156396	-0.194194	-0.0938796	0.32449	1.46837	0	0	0.0128787	-0.244975	0.442763	0.350448	1.19753	0	0
2.09	-1.89299	1.46319	-2.89879	0.694877	1.01372	1.00122	0.332677	-0.25868	-0.0173594	1.27966	-0.0532767	0	0	0.18669	0.110476	-0.220328	0.362803	0.0897164	0	0	-0.195979	-0.0989023	0.07351	-0.00813919	-0.195995	-0.0977488	0.315957	1.47576	0	0	0.0187606	-0.235168	0.402874	0.335989	1.25289	0	0
2.1	-2.01718	1.47556	-2.77218	0.693623	1.01934	1.00408	0.339461	-0.254449	-0.0439023	1.27181	-0.0605558	0	0	0.165378	0.0974531	-0.214941	0.352203	0.090814	0	0	-0.210969	-0.0806327	0.0740092	0.00318223	-0.201545	-0.0972448	0.311075	1.47678	0	0	0.0298993	-0.227429	0.401827	0.329471	1.25423	0	0
2.11	-2.09388	1.47758	-2.68886	0.692749	1.02595	1.00542	0.34528	-0.250875	-0.0541897	1.26352	-0.0547807	0	0	0.146033	0.0955718	-0.208994	0.342193	0.0945241	0	0	-0.219247	-0.0758068	0.0701669	0.00588089	-0.204996	-0.0745844	0.313913	1.44132	0	0	0.0312643	-0.240551	0.475699	0.353069	1.15307	0	0
2.12	-2.11314	1.47974	-2.66412	0.692014	1.03251	1.00626	0.357693	-0.248772	-0.0620047	1.25389	-0.0479251	0	0	0.133082	0.0955262	-0.202912	0.333175	0.0976396	0	0	-0.222125	-0.07315	0.0663181	0.0104628	-0.205669	-0.0735286	0.312866	1.4377	0	0	0.0372103	-0.236154	0.45189	0.346565	1.19182	0	0
2.13	-2.03201	1.47332	-2.73599	0.691603	1.04025	1.0054	0.373023	-0.247316	-0.0492767	1.24483	-0.028356	0	0	0.124568	0.107684	-0.19685	0.325346	0.103522	0	0	-0.215108	-0.0847044	0.0580115	0.00816606	-0.20188	-0.0720023	0.314124	1.43283	0	0	0.0363421	-0.243534	0.457557	0.352867	1.18748	0	0
2.14	-2.05683	1.47555	-2.70622	0.690971	1.04669	1.00611	0.383104	-0.245163	-0.0577413	1.22842	-0.0194647	0	0	0.111668	0.10686	-0.191084	0.317513	0.10684	0	0	-0.219022	-0.0817819	0.0555771	0.0114937	-0.20324	-0.068157	0.315294	1.42698	0	0	0.0428282	-0.243121	0.463516	0.352027	1.18038	0	0
2.15	-2.08915	1.47751	-2.6694	0.690423	1.05305	1.00681	0.391536	-0.243041	-0.0668237	1.20874	-0.0105889	0	0	0.0981605	0.105851	-0.18575	0.30948	0.110173	0	0	-0.223878	-0.0787202	0.0536383	0.0154755	-0.204532	-0.0645559	0.315475	1.42132	0	0	0.0500176	-0.242144	0.470207	0.349983	1.17223	0	0
2.16	-2.11184	1.47731	-2.63971	0.690642	1.05931	1.00753	0.397323	-0.232013	-0.0783839	1.18687	-0.00910552	0	0	0.08382	0.103496	-0.183491	0.30015	0.115497	0	0	-0.229443	-0.0791719	0.0501435	0.019832	-0.203741	-0.0610695	0.313866	1.41706	0	0	0.0583311	-0.242606	0.476968	0.347467	1.16494	0	0
2.17	-2.15295	1.47839	-2.59447	0.690192	1.06566	1.00815	0.402736	-0.231121	-0.0878846	1.1607	-0.000871622	0	0	0.0690124	0.10254	-0.177376	0.291644	0.118354	0	0	-0.235692	-0.0760637	0.0480188	0.0256365	-0.204734	-0.0565814	0.310992	1.41151	0	0	0.065797	-0.241349	0.485946	0.344961	1.15498	0	0
2.18	-2.18987	1.47973	-2.55403	0.689829	1.07197	1.0086	0.4079	-0.229747	-0.0973254	1.13186	0.00694549	0	0	0.0550338	0.101319	-0.17216	0.283169	0.121692	0	0	-0.241405	-0.0726825	0.0462579	0.0317756	-0.205786	-0.0518421	0.307864	1.40602	0	0	0.0731066	-0.240074	0.496136	0.342742	1.14352	0	0
2.19	-2.21753	1.48146	-2.52396	0.689617	1.0782	1.00886	0.413425	-0.22798	-0.106503	1.10044	0.0148242	0	0	0.0426232	0.0999336	-0.16901	0.274898	0.125357	0	0	-0.246231	-0.0695113	0.0453602	0.037987	-0.206903	-0.0457633	0.305225	1.39982	0	0	0.0798785	-0.239693	0.508988	0.342747	1.12821	0	0
2.2	-2.25307	1.48433	-2.48709	0.689454	1.08432	1.00924	0.417122	-0.224586	-0.117465	1.06404	0.0225227	0	0	0.0306014	0.0970108	-0.165754	0.26677	0.127817	0	0	-0.252095	-0.0640542	0.04373	0.0483943	-0.207128	-0.0499832	0.297712	1.40853	0	0	0.101192	-0.206246	0.350351	0.279059	1.33057	0	0
2.21	-2.4263	1.49231	-2.31593	0.689253	1.08899	1.0109	0.41454	-0.219412	-0.153041	1.02065	0.0212298	0	0	0.0173557	0.0815236	-0.163416	0.262602	0.12887	0	0	-0.267853	-0.0462488	0.049098	0.0617307	-0.212866	-0.0418663	0.295017	1.39978	0	0	0.114	-0.199545	0.356956	0.276355	1.31977	0	0
2.22	-2.3281	1.48832	-2.40892	0.689356	1.09637	1.00969	0.420672	-0.218074	-0.140897	0.984911	0.0400118	0	0	0.00877569	0.0915444	-0.157071	0.256394	0.13314	0	0	-0.264792	-0.0557948	0.0430148	0.0628846	-0.210078	-0.0395004	0.294177	1.39665	0	0	0.114958	-0.203726	0.361806	0.279591	1.31607	0	0
2.23	-2.34562	1.49126	-2.3905	0.689421	1.10242	1.00961	0.423444	-0.215479	-0.154592	0.942961	0.0477315	0	0	0.00139613	0.0889071	-0.154071	0.253477	0.136764	0	0	-0.26883	-0.0521766	0.042867	0.0693293	-0.211745	-0.0358531	0.294155	1.39305	0	0	0.120974	-0.202768	0.366493	0.280279	1.31144	0	0
2.24	-2.36261	1.49419	-2.37313	0.689578	1.10853	1.00948	0.425302	-0.212861	-0.169665	0.8993	0.0541919	0	0	-0.00559215	0.0861594	-0.151784	0.251238	0.140512	0	0	-0.272666	-0.0486712	0.0429279	0.0753701	-0.213616	-0.0319303	0.294933	1.38984	0	0	0.12666	-0.202025	0.371745	0.280944	1.30692	0	0
2.25	-2.39073	1.49675	-2.34514	0.689861	1.11485	1.00937	0.424918	-0.209114	-0.184908	0.853788	0.059886	0	0	-0.0139359	0.0830011	-0.150523	0.24819	0.144195	0	0	-0.276916	-0.0449391	0.04323	0.0807247	-0.215729	-0.0276777	0.296737	1.38607	0	0	0.131559	-0.201594	0.377671	0.282385	1.30139	0	0
2.26	-2.43641	1.49967	-2.29979	0.69027	1.12137	1.00927	0.422086	-0.203798	-0.202572	0.805521	0.0643117	0	0	-0.0224677	0.0784115	-0.149283	0.246266	0.148162	0	0	-0.281249	-0.0399843	0.0435442	0.0856931	-0.218156	-0.0232164	0.29902	1.38206	0	0	0.135527	-0.201275	0.383794	0.284622	1.29389	0	0
2.27	-2.47675	1.50342	-2.26039	0.690853	1.12801	1.00907	0.419635	-0.197662	-0.221495	0.756134	0.0673631	0	0	-0.0290867	0.0732938	-0.148672	0.245993	0.153422	0	0	-0.284208	-0.0350524	0.0445084	0.0949578	-0.216271	-0.0558405	0.291307	1.42687	0	0	0.140562	-0.197949	0.370953	0.280757	1.30995	0	0
